<?xml version="1.0" encoding="utf-8"?>
<!-- Generator: Adobe Illustrator 25.2.1, SVG Export Plug-In . SVG Version: 6.00 Build 0)  -->
<svg version="1.1" id="Camada_1" xmlns="http://www.w3.org/2000/svg" xmlns:xlink="http://www.w3.org/1999/xlink" x="0px" y="0px"
	 viewBox="0 0 506.2 160" style="enable-background:new 0 0 506.2 160;" xml:space="preserve">
<style type="text/css">
	.st0{fill:#FFFFFF;}
</style>
<path class="st0" d="M73.5,136.4c-2.2-8.9-3.8-18.2-6.8-27.1c-2.9-8.6-7.1-16.7-11.1-26c-17.4,8.2-32,5.5-45-6.8
	c12-10.7,27.3-10,45.2,2.2l15.3-14.3c-15.6-5.2-20.1-16-18.9-30.1c0.2-1.8-1.6-3.7-1.8-5.7c-0.2-2.2-0.5-5.1,0.7-6.4
	s4.2-0.9,6.4-1.3c3-0.5,6.7-0.2,9-1.8C72,15.4,77,13.7,82.3,19c3.2,3.3,6.3,3.8,10.9,2.1c5.2-1.9,7.7,1.5,6.2,7
	c-0.7,2.5-2,5-1.9,7.4c0.4,13.3-3.1,24.2-17.8,28.1l12.9,14.7c7.5-3.4,13.5-5.8,19.2-8.8c3.1-1.6,5.9-3.8,8.1-6.5
	c7.4-9.7,9.6-20.9,8-32.8c-2.2-16.2-11.1-23.9-27.5-24.1c-8.7-0.1-17.4,0-26.6,0c0.7-1.9,0.9-2.8,1-2.8c13-0.1,26.1-1.2,38.9,0.1
	c16.6,1.7,28.7,13.5,31.6,28.2c2.8,14-3.9,26-21.3,36.8c5.6,1.2,10.3,1.9,14.8,3.1c13.5,3.7,24,10.9,25.9,25.8
	c1.9,14.6-5.2,25.3-17.6,32.1c-6.1,3.3-13.1,6.3-19.9,6.7C109.4,137,91.7,136.4,73.5,136.4z M137.4,78.3
	c-13.2,10.9-27.4,12.9-42.1,5.5C84.5,99.3,80,115.5,77.7,132.1c17.5,0,34.1,1,50.5-0.5c6-0.6,13.4-5.8,16.8-11.1
	C152.8,108.4,148.9,89.7,137.4,78.3z M55.5,25.4c0.4,7.2,0.2,14,1.4,20.6c1.4,7.6,6.5,12.2,14.4,13.5C73.3,43.2,66.9,29.6,55.5,25.4
	z M76.9,59.3c12.6-2.6,16.7-8.4,16.8-21.3c0-4.3,0.6-8.6,1-13.6C79.3,31.1,79.3,45.1,76.9,59.3z M76.9,112.1L91,81.4L76.9,68.7
	L76.9,112.1z M58.8,81.5c4.6,10,8.9,19.3,13.7,29.5V70c-0.9,0.1-1.3,0-1.5,0.1C66.9,73.9,62.8,77.7,58.8,81.5z M133.6,76.1
	c-13.8-5.9-26.8-3.7-33.4,5.3C112.2,86.7,122.8,84.5,133.6,76.1z M50.5,81C40,71.6,28.2,70.3,17,77.2C27.5,84.5,37.9,86.6,50.5,81z
	 M74.9,43.7c3-6.4,5.7-12.4,8.5-18.4c-8.3-8-9.6-8-17,0.3C69.2,31.6,71.9,37.3,74.9,43.7z"/>
<path class="st0" d="M207.5,129.2c-5.9,0.2-11.6-1.3-16.7-4.3c-4.7-2.9-8.4-7.1-10.8-12c-2.6-5.7-3.9-11.8-3.8-18.1
	c-0.1-6.3,1.2-12.5,3.8-18.2c2.3-5,6-9.3,10.6-12.3c4.7-3,10.3-4.6,15.9-4.4c3.5,0,7,0.6,10.4,1.7c3.5,1.2,6.6,3.1,9.3,5.7
	c3,2.9,5.3,6.4,6.7,10.3c1.8,5.1,2.6,10.4,2.5,15.8v4.4h-48.7c0.2,7.2,2.3,12.6,6.1,16.5c3.8,3.8,8.8,5.7,14.8,5.7
	c3.7,0.1,7.3-0.8,10.4-2.6c3-1.8,5.2-4.6,6.3-7.9l10,2.8c-1.6,5.1-4.9,9.4-9.4,12.3C220.1,127.6,214.3,129.2,207.5,129.2z
	 M186.6,88.8h38.2c0.2-5.2-1.6-10.2-5-14.1c-3.3-3.7-7.8-5.6-13.4-5.6c-3.6-0.1-7.2,0.9-10.2,2.8c-2.9,1.8-5.2,4.3-6.8,7.3
	C187.7,82.1,186.8,85.4,186.6,88.8z"/>
<path class="st0" d="M270.7,129.3c-4,0.1-7.9-0.8-11.6-2.4c-7.2-3.2-11.6-10.4-11.3-18.2c-0.1-3.3,0.6-6.5,2.3-9.4
	c1.5-2.4,3.6-4.3,6.1-5.7c2.6-1.4,5.5-2.5,8.4-3.1c3.1-0.7,6.2-1.2,9.3-1.6c4.1-0.5,7.4-0.9,9.9-1.2c1.9-0.1,3.8-0.6,5.6-1.4
	c1.2-0.7,1.9-2.1,1.8-3.5v-0.3c0-4.3-1.2-7.6-3.5-10s-5.9-3.6-10.7-3.6c-4.9,0-8.8,1.1-11.6,3.2c-2.5,1.8-4.5,4.2-5.9,6.9l-9.8-3.5
	c1.5-3.7,3.9-7,7-9.5c2.8-2.2,6.1-3.9,9.6-4.8c3.4-0.9,6.8-1.4,10.3-1.4c2.5,0,5,0.3,7.5,0.8c2.9,0.5,5.7,1.6,8.2,3.1
	c2.8,1.7,5.1,4.2,6.6,7.1c1.8,3.2,2.6,7.4,2.6,12.8v44.2h-10.3v-9.1h-0.5c-0.9,1.7-2.1,3.3-3.5,4.7c-1.9,1.8-4.1,3.3-6.5,4.2
	C277.5,128.8,274.1,129.4,270.7,129.3z M272.3,120.1c3.6,0.1,7.2-0.7,10.3-2.4c2.6-1.5,4.9-3.6,6.4-6.2c1.4-2.4,2.2-5.2,2.2-8v-9.4
	c-0.8,0.7-1.8,1.2-2.9,1.4c-1.7,0.5-3.4,0.8-5.1,1.1c-1.9,0.3-3.8,0.6-5.5,0.8l-4.4,0.6c-2.5,0.3-5.1,0.9-7.5,1.7
	c-2.1,0.7-4,1.8-5.6,3.4c-1.5,1.7-2.2,4-2.1,6.2c-0.2,3.2,1.3,6.3,4,8.1C265.2,119.3,268.7,120.2,272.3,120.1L272.3,120.1z"/>
<path class="st0" d="M362.6,100.3V60.7h10.3v67.1h-10.3v-11.4h-0.7c-1.6,3.5-4.2,6.5-7.3,8.7c-3.3,2.4-7.5,3.6-12.6,3.6
	c-5.8,0.2-11.5-2.1-15.5-6.2c-4.1-4.2-6.1-10.5-6.1-19.1V60.7h10.3v41.9c0,4.9,1.4,8.8,4.1,11.7c2.7,2.9,6.6,4.5,10.5,4.4
	c2.7-0.1,5.4-0.7,7.8-2c2.7-1.4,5.1-3.4,6.7-6C361.8,107.6,362.8,104,362.6,100.3z"/>
<path class="st0" d="M421,60.7v8.7h-14.3v39.1c0,2.9,0.4,5.1,1.3,6.5c0.7,1.3,1.9,2.3,3.3,2.9c1.4,0.5,2.8,0.7,4.3,0.7
	c0.9,0,1.9-0.1,2.8-0.2l1.7-0.3l2.1,9.3c-2.5,0.9-5.1,1.3-7.7,1.2c-2.9,0-5.9-0.7-8.5-1.9c-2.8-1.2-5.2-3.2-6.9-5.7
	c-1.9-2.9-2.9-6.3-2.7-9.7V69.4h-10.1v-8.7h10.1V44.6h10.3v16.1H421z"/>
<path class="st0" d="M442.8,153.8c-1.6,0-3.1-0.1-4.7-0.4c-1-0.2-1.9-0.4-2.8-0.8l2.6-9.1c3.8,1,6.9,0.9,9.4-0.1c2.5-1,4.7-4,6.5-9
	l2.3-6.3l-24.8-67.4h11.2l18.5,53.5h0.7l18.5-53.5h11.2l-28.8,77.9C458.8,148.7,452.2,153.8,442.8,153.8z"/>
</svg>
